<?xml version="1.0" encoding="UTF-8" standalone="no"?>
<!-- Created with Inkscape (http://www.inkscape.org/) -->

<svg
   xmlns:dc="http://purl.org/dc/elements/1.1/"
   xmlns:cc="http://creativecommons.org/ns#"
   xmlns:rdf="http://www.w3.org/1999/02/22-rdf-syntax-ns#"
   xmlns:svg="http://www.w3.org/2000/svg"
   xmlns="http://www.w3.org/2000/svg"
   xmlns:sodipodi="http://sodipodi.sourceforge.net/DTD/sodipodi-0.dtd"
   xmlns:inkscape="http://www.inkscape.org/namespaces/inkscape"
   width="201"
   height="59"
   id="svg2"
   version="1.1"
   inkscape:version="0.48.3.1 r9886"
   sodipodi:docname="logotype.svg"
   inkscape:export-filename="logotype.png"
   inkscape:export-xdpi="90"
   inkscape:export-ydpi="90">
  <defs
     id="defs4">
    <filter
       inkscape:collect="always"
       id="filter4150"
       color-interpolation-filters="sRGB">
      <feGaussianBlur
         inkscape:collect="always"
         stdDeviation="1.1313864"
         id="feGaussianBlur4152" />
    </filter>
  </defs>
  <sodipodi:namedview
     id="base"
     pagecolor="#ffffff"
     bordercolor="#666666"
     borderopacity="1.0"
     inkscape:pageopacity="0.0"
     inkscape:pageshadow="2"
     inkscape:zoom="7.9595839"
     inkscape:cx="100.5"
     inkscape:cy="20.100451"
     inkscape:document-units="px"
     inkscape:current-layer="layer1"
     showgrid="false"
     inkscape:window-width="1678"
     inkscape:window-height="980"
     inkscape:window-x="0"
     inkscape:window-y="0"
     inkscape:window-maximized="1"
     showguides="true"
     inkscape:guide-bbox="true" />
  <metadata
     id="metadata7">
    <rdf:RDF>
      <cc:Work
         rdf:about="">
        <dc:format>image/svg+xml</dc:format>
        <dc:type
           rdf:resource="http://purl.org/dc/dcmitype/StillImage" />
        <dc:title />
      </cc:Work>
    </rdf:RDF>
  </metadata>
  <g
     inkscape:label="Capa 1"
     inkscape:groupmode="layer"
     id="layer1"
     transform="translate(0,-993.36218)">
    <g
       style="display:inline"
       id="g3884"
       transform="matrix(0.73800037,0,0,0.73800037,7.8724871,173.51482)">
      <g
         style="fill:#000000;fill-opacity:1"
         transform="matrix(1.3504663,0,0,1.3504663,-10.794199,-231.08073)"
         inkscape:label="Capa 1"
         id="layer1-0">
        <g
           style="font-size:44.92829514px;font-style:normal;font-variant:normal;font-weight:normal;font-stretch:normal;line-height:125%;letter-spacing:0px;word-spacing:0px;fill:#000000;stroke:none;font-family:Montserrat;-inkscape-font-specification:Montserrat"
           id="text2985-3">
          <path
             d="m 13.83059,1023.2329 c 1.49932,0 2.791052,0.2076 3.8752,0.6228 1.084116,0.4152 2.156715,1.0611 3.2178,1.9376 l -1.7646,1.8338 c -1.591616,-1.2687 -3.344681,-1.903 -5.2592,-1.903 -1.960677,0 -3.621475,0.8073 -4.9823996,2.422 -1.3609392,1.5916 -2.0414051,4.0482 -2.0413999,7.3698 -5.2e-6,6.574 2.2489924,9.861 6.7469995,9.861 1.77612,0 3.321585,-0.3806 4.6364,-1.1418 l 0,-7.439 -4.325,0 -0.346,-2.4566 7.6466,0 0,11.4526 c -2.329751,1.384 -4.936281,2.076 -7.8196,2.076 -3.021742,0 -5.3976059,-1.0496 -7.1275995,-3.1486 -1.7300028,-2.0991 -2.5950019,-5.1669 -2.5949999,-9.2036 -2e-6,-3.8521 0.9918636,-6.8623 2.9755999,-9.0306 1.9837263,-2.1683 4.3711235,-3.2524 7.1621995,-3.2524"
             style="font-size:34.59999847px;font-weight:normal;fill:#000000;-inkscape-font-specification:Fira Sans"
             id="path3013" />
          <path
             d="m 43.444945,1023.6481 0,23.8048 -4.0136,0 -10.034,-20.5178 c 0.276794,3.0448 0.415194,6.055 0.4152,9.0306 l 0,11.4872 -2.8026,0 0,-23.8048 3.9098,0 10.1032,20.5524 c -0.253751,-2.3989 -0.380618,-4.8094 -0.3806,-7.2314 l 0,-13.321 2.8026,0"
             style="font-size:34.59999847px;font-weight:normal;fill:#000000;-inkscape-font-specification:Fira Sans"
             id="path3015" />
          <path
             d="m 66.649107,1023.6481 0,16.2274 c -1.9e-5,2.3989 -0.726619,4.3365 -2.1798,5.8128 -1.430149,1.4532 -3.44848,2.1798 -6.055,2.1798 -2.629608,0 -4.647939,-0.7266 -6.054999,-2.1798 -1.407071,-1.4532 -2.110603,-3.3908 -2.1106,-5.8128 l 0,-16.2274 2.9756,0 0,15.9852 c -6e-6,3.7829 1.729992,5.6744 5.189999,5.6744 3.459985,0 5.189984,-1.8915 5.19,-5.6744 l 0,-15.9852 3.0448,0"
             style="font-size:34.59999847px;font-weight:normal;fill:#000000;-inkscape-font-specification:Fira Sans"
             id="path3017" />
          <path
             d="m 80.160895,1016.3176 0,31.1353 -7.36824,0 0,-31.1353 7.36824,0"
             style="font-weight:bold;fill:#000000;font-family:Fira Sans;-inkscape-font-specification:Fira Sans Bold"
             id="path3019" />
          <path
             d="m 96.241714,1022.8322 c 3.144964,0 5.870616,0.9734 8.176946,2.9203 l -3.10005,4.2682 c -1.437721,-1.1681 -2.93533,-1.7522 -4.492829,-1.7522 -3.204895,0 -4.807336,2.4711 -4.807327,7.4132 -9e-6,2.516 0.404345,4.2981 1.213064,5.3464 0.808698,1.0484 1.976833,1.5725 3.504407,1.5725 1.43769,0 2.920323,-0.584 4.447905,-1.7522 l 3.23483,4.5378 c -2.36624,1.887 -5.046958,2.8305 -8.042161,2.8305 -3.654178,0 -6.544562,-1.1232 -8.671161,-3.3697 -2.096657,-2.2763 -3.144983,-5.3165 -3.144981,-9.1204 -2e-6,-3.8339 1.0633,-6.9339 3.189909,-9.3002 2.126599,-2.3961 4.957079,-3.5942 8.491448,-3.5942"
             style="font-weight:bold;fill:#000000;font-family:Fira Sans;-inkscape-font-specification:Fira Sans Bold"
             id="path3021" />
          <path
             d="m 116.76272,1022.8322 c 3.44448,0 6.14018,1.0783 8.08709,3.2348 1.94687,2.1566 2.92032,5.1518 2.92034,8.9857 -2e-5,0.9884 -0.045,1.842 -0.13479,2.5609 l -14.73648,0 c 0.20966,2.0068 0.76377,3.4145 1.66235,4.2232 0.89855,0.8088 2.14157,1.2131 3.72905,1.2131 1.76716,0 3.66912,-0.7039 5.70589,-2.1116 l 2.92034,3.9537 c -2.78557,2.2164 -5.88562,3.3247 -9.30016,3.3247 -3.86384,0 -6.8291,-1.1382 -8.8958,-3.4146 -2.0667,-2.2764 -3.10005,-5.3315 -3.10005,-9.1654 0,-3.714 0.97344,-6.7691 2.92034,-9.1653 1.97684,-2.4261 4.71746,-3.6392 8.22188,-3.6392 m -3.90877,10.5132 7.95231,0 0,-0.3145 c -0.0599,-3.6542 -1.34786,-5.4812 -3.86383,-5.4813 -1.22805,10e-5 -2.17155,0.4493 -2.83048,1.3479 -0.65896,0.8686 -1.07829,2.3513 -1.258,4.4479"
             style="font-weight:bold;fill:#000000;font-family:Fira Sans;-inkscape-font-specification:Fira Sans Bold"
             id="path3023" />
          <path
             d="m 144.60421,1015.5538 c 3.71406,0 6.91894,1.1382 9.61466,3.4145 l -3.59426,4.2682 c -1.73725,-1.4976 -3.59429,-2.2464 -5.57111,-2.2464 -2.06672,0 -3.71409,0.8986 -4.94212,2.6957 -1.19809,1.7672 -1.79714,4.4779 -1.79713,8.132 -10e-6,3.6243 0.59904,6.32 1.79713,8.0871 1.22803,1.7373 2.92033,2.6059 5.0769,2.6059 1.79712,0 3.81889,-0.8686 6.06532,-2.6059 l 3.3247,4.3131 c -2.60587,2.6658 -5.85568,3.9987 -9.74944,3.9987 -4.34308,0 -7.80256,-1.4228 -10.37844,-4.2682 -2.57589,-2.8754 -3.86384,-6.919 -3.86383,-12.1307 -1e-5,-5.0918 1.30291,-9.0755 3.90876,-11.9509 2.60583,-2.8754 5.97545,-4.3131 10.10886,-4.3131"
             style="font-weight:bold;fill:#000000;font-family:Fira Sans;-inkscape-font-specification:Fira Sans Bold"
             id="path3025" />
          <path
             d="m 166.76369,1022.8322 c 3.41453,0 5.91554,0.7039 7.50302,2.1116 1.58745,1.4078 2.38118,3.5194 2.3812,6.3349 l 0,9.2552 c -2e-5,0.8986 0.11979,1.5575 0.35943,1.9769 0.26955,0.4193 0.68888,0.7338 1.25799,0.9435 l -1.48263,4.6276 c -1.46768,-0.1198 -2.66577,-0.4343 -3.59426,-0.9435 -0.89859,-0.5092 -1.61744,-1.3329 -2.15656,-2.4711 -1.55753,2.3663 -3.9537,3.5494 -7.18853,3.5494 -2.36623,0 -4.25322,-0.6889 -5.66096,-2.0667 -1.40776,-1.3778 -2.11164,-3.175 -2.11163,-5.3914 -1e-5,-2.6059 0.95846,-4.5977 2.87541,-5.9755 1.91693,-1.3778 4.68751,-2.0667 8.31173,-2.0667 l 2.42613,0 0,-1.0334 c -2e-5,-1.4077 -0.29954,-2.3662 -0.89857,-2.8754 -0.59905,-0.5391 -1.64738,-0.8087 -3.14498,-0.8087 -1.70728,0 -3.78896,0.4194 -6.24503,1.258 l -1.61742,-4.6725 c 3.14498,-1.1681 6.14019,-1.7522 8.98566,-1.7522 m 2.92034,13.793 -1.7522,0 c -3.2049,0 -4.80734,1.1681 -4.80733,3.5044 -1e-5,0.9584 0.23961,1.7072 0.71885,2.2464 0.50918,0.5092 1.19808,0.7638 2.0667,0.7638 1.58746,0 2.84545,-0.7488 3.77398,-2.2465 l 0,-4.2681"
             style="font-weight:bold;fill:#000000;font-family:Fira Sans;-inkscape-font-specification:Fira Sans Bold"
             id="path3027" />
          <path
             d="m 190.11868,1017.6205 0,5.9755 5.48125,0 -0.76378,4.9421 -4.71747,0 0,10.9625 c -1e-5,1.1082 0.1797,1.9019 0.53914,2.3812 0.35942,0.4792 0.92851,0.7188 1.70728,0.7188 0.83864,0 1.69228,-0.2695 2.56091,-0.8087 l 2.3812,4.5378 c -1.79715,1.258 -3.9537,1.887 -6.46967,1.887 -5.21169,-0.03 -7.81753,-2.9054 -7.81753,-8.6263 l 0,-11.0523 -3.36962,0 0,-4.9421 3.36962,0 0,-5.1668 7.09867,-0.8087"
             style="font-weight:bold;fill:#000000;font-family:Fira Sans;-inkscape-font-specification:Fira Sans Bold"
             id="path3029" />
        </g>
      </g>
      <g
         style="opacity:0.40825692;fill:#f1f1f1;fill-opacity:1;filter:url(#filter4150)"
         transform="matrix(1.3504663,0,0,1.3504663,-10.210391,-229.91311)"
         inkscape:label="Capa 1"
         id="layer1-0-9">
        <g
           style="font-size:44.92829514px;font-style:normal;font-variant:normal;font-weight:normal;font-stretch:normal;line-height:125%;letter-spacing:0px;word-spacing:0px;fill:#f1f1f1;stroke:none;font-family:Montserrat;-inkscape-font-specification:Montserrat"
           id="text2985-1">
          <path
             d="m 13.83059,1023.2329 c 1.49932,0 2.791052,0.2076 3.8752,0.6228 1.084116,0.4152 2.156715,1.0611 3.2178,1.9376 l -1.7646,1.8338 c -1.591616,-1.2687 -3.344681,-1.903 -5.2592,-1.903 -1.960677,0 -3.621475,0.8073 -4.9823996,2.422 -1.3609392,1.5916 -2.0414051,4.0482 -2.0413999,7.3698 -5.2e-6,6.574 2.2489924,9.861 6.7469995,9.861 1.77612,0 3.321585,-0.3806 4.6364,-1.1418 l 0,-7.439 -4.325,0 -0.346,-2.4566 7.6466,0 0,11.4526 c -2.329751,1.384 -4.936281,2.076 -7.8196,2.076 -3.021742,0 -5.3976059,-1.0496 -7.1275995,-3.1486 -1.7300028,-2.0991 -2.5950019,-5.1669 -2.5949999,-9.2036 -2e-6,-3.8521 0.9918636,-6.8623 2.9755999,-9.0306 1.9837263,-2.1683 4.3711235,-3.2524 7.1621995,-3.2524"
             style="font-size:34.59999847px;font-weight:normal;fill:#f1f1f1;-inkscape-font-specification:Fira Sans"
             id="path2994" />
          <path
             d="m 43.444945,1023.6481 0,23.8048 -4.0136,0 -10.034,-20.5178 c 0.276794,3.0448 0.415194,6.055 0.4152,9.0306 l 0,11.4872 -2.8026,0 0,-23.8048 3.9098,0 10.1032,20.5524 c -0.253751,-2.3989 -0.380618,-4.8094 -0.3806,-7.2314 l 0,-13.321 2.8026,0"
             style="font-size:34.59999847px;font-weight:normal;fill:#f1f1f1;-inkscape-font-specification:Fira Sans"
             id="path2996" />
          <path
             d="m 66.649107,1023.6481 0,16.2274 c -1.9e-5,2.3989 -0.726619,4.3365 -2.1798,5.8128 -1.430149,1.4532 -3.44848,2.1798 -6.055,2.1798 -2.629608,0 -4.647939,-0.7266 -6.054999,-2.1798 -1.407071,-1.4532 -2.110603,-3.3908 -2.1106,-5.8128 l 0,-16.2274 2.9756,0 0,15.9852 c -6e-6,3.7829 1.729992,5.6744 5.189999,5.6744 3.459985,0 5.189984,-1.8915 5.19,-5.6744 l 0,-15.9852 3.0448,0"
             style="font-size:34.59999847px;font-weight:normal;fill:#f1f1f1;-inkscape-font-specification:Fira Sans"
             id="path2998" />
          <path
             d="m 80.160895,1016.3176 0,31.1353 -7.36824,0 0,-31.1353 7.36824,0"
             style="font-weight:bold;fill:#f1f1f1;font-family:Fira Sans;-inkscape-font-specification:Fira Sans Bold"
             id="path3000" />
          <path
             d="m 96.241714,1022.8322 c 3.144964,0 5.870616,0.9734 8.176946,2.9203 l -3.10005,4.2682 c -1.437721,-1.1681 -2.93533,-1.7522 -4.492829,-1.7522 -3.204895,0 -4.807336,2.4711 -4.807327,7.4132 -9e-6,2.516 0.404345,4.2981 1.213064,5.3464 0.808698,1.0484 1.976833,1.5725 3.504407,1.5725 1.43769,0 2.920323,-0.584 4.447905,-1.7522 l 3.23483,4.5378 c -2.36624,1.887 -5.046958,2.8305 -8.042161,2.8305 -3.654178,0 -6.544562,-1.1232 -8.671161,-3.3697 -2.096657,-2.2763 -3.144983,-5.3165 -3.144981,-9.1204 -2e-6,-3.8339 1.0633,-6.9339 3.189909,-9.3002 2.126599,-2.3961 4.957079,-3.5942 8.491448,-3.5942"
             style="font-weight:bold;fill:#f1f1f1;font-family:Fira Sans;-inkscape-font-specification:Fira Sans Bold"
             id="path3002" />
          <path
             d="m 116.76272,1022.8322 c 3.44448,0 6.14018,1.0783 8.08709,3.2348 1.94687,2.1566 2.92032,5.1518 2.92034,8.9857 -2e-5,0.9884 -0.045,1.842 -0.13479,2.5609 l -14.73648,0 c 0.20966,2.0068 0.76377,3.4145 1.66235,4.2232 0.89855,0.8088 2.14157,1.2131 3.72905,1.2131 1.76716,0 3.66912,-0.7039 5.70589,-2.1116 l 2.92034,3.9537 c -2.78557,2.2164 -5.88562,3.3247 -9.30016,3.3247 -3.86384,0 -6.8291,-1.1382 -8.8958,-3.4146 -2.0667,-2.2764 -3.10005,-5.3315 -3.10005,-9.1654 0,-3.714 0.97344,-6.7691 2.92034,-9.1653 1.97684,-2.4261 4.71746,-3.6392 8.22188,-3.6392 m -3.90877,10.5132 7.95231,0 0,-0.3145 c -0.0599,-3.6542 -1.34786,-5.4812 -3.86383,-5.4813 -1.22805,10e-5 -2.17155,0.4493 -2.83048,1.3479 -0.65896,0.8686 -1.07829,2.3513 -1.258,4.4479"
             style="font-weight:bold;fill:#f1f1f1;font-family:Fira Sans;-inkscape-font-specification:Fira Sans Bold"
             id="path3004" />
          <path
             d="m 144.60421,1015.5538 c 3.71406,0 6.91894,1.1382 9.61466,3.4145 l -3.59426,4.2682 c -1.73725,-1.4976 -3.59429,-2.2464 -5.57111,-2.2464 -2.06672,0 -3.71409,0.8986 -4.94212,2.6957 -1.19809,1.7672 -1.79714,4.4779 -1.79713,8.132 -10e-6,3.6243 0.59904,6.32 1.79713,8.0871 1.22803,1.7373 2.92033,2.6059 5.0769,2.6059 1.79712,0 3.81889,-0.8686 6.06532,-2.6059 l 3.3247,4.3131 c -2.60587,2.6658 -5.85568,3.9987 -9.74944,3.9987 -4.34308,0 -7.80256,-1.4228 -10.37844,-4.2682 -2.57589,-2.8754 -3.86384,-6.919 -3.86383,-12.1307 -1e-5,-5.0918 1.30291,-9.0755 3.90876,-11.9509 2.60583,-2.8754 5.97545,-4.3131 10.10886,-4.3131"
             style="font-weight:bold;fill:#f1f1f1;font-family:Fira Sans;-inkscape-font-specification:Fira Sans Bold"
             id="path3006" />
          <path
             d="m 166.76369,1022.8322 c 3.41453,0 5.91554,0.7039 7.50302,2.1116 1.58745,1.4078 2.38118,3.5194 2.3812,6.3349 l 0,9.2552 c -2e-5,0.8986 0.11979,1.5575 0.35943,1.9769 0.26955,0.4193 0.68888,0.7338 1.25799,0.9435 l -1.48263,4.6276 c -1.46768,-0.1198 -2.66577,-0.4343 -3.59426,-0.9435 -0.89859,-0.5092 -1.61744,-1.3329 -2.15656,-2.4711 -1.55753,2.3663 -3.9537,3.5494 -7.18853,3.5494 -2.36623,0 -4.25322,-0.6889 -5.66096,-2.0667 -1.40776,-1.3778 -2.11164,-3.175 -2.11163,-5.3914 -1e-5,-2.6059 0.95846,-4.5977 2.87541,-5.9755 1.91693,-1.3778 4.68751,-2.0667 8.31173,-2.0667 l 2.42613,0 0,-1.0334 c -2e-5,-1.4077 -0.29954,-2.3662 -0.89857,-2.8754 -0.59905,-0.5391 -1.64738,-0.8087 -3.14498,-0.8087 -1.70728,0 -3.78896,0.4194 -6.24503,1.258 l -1.61742,-4.6725 c 3.14498,-1.1681 6.14019,-1.7522 8.98566,-1.7522 m 2.92034,13.793 -1.7522,0 c -3.2049,0 -4.80734,1.1681 -4.80733,3.5044 -1e-5,0.9584 0.23961,1.7072 0.71885,2.2464 0.50918,0.5092 1.19808,0.7638 2.0667,0.7638 1.58746,0 2.84545,-0.7488 3.77398,-2.2465 l 0,-4.2681"
             style="font-weight:bold;fill:#f1f1f1;font-family:Fira Sans;-inkscape-font-specification:Fira Sans Bold"
             id="path3008" />
          <path
             d="m 190.11868,1017.6205 0,5.9755 5.48125,0 -0.76378,4.9421 -4.71747,0 0,10.9625 c -1e-5,1.1082 0.1797,1.9019 0.53914,2.3812 0.35942,0.4792 0.92851,0.7188 1.70728,0.7188 0.83864,0 1.69228,-0.2695 2.56091,-0.8087 l 2.3812,4.5378 c -1.79715,1.258 -3.9537,1.887 -6.46967,1.887 -5.21169,-0.03 -7.81753,-2.9054 -7.81753,-8.6263 l 0,-11.0523 -3.36962,0 0,-4.9421 3.36962,0 0,-5.1668 7.09867,-0.8087"
             style="font-weight:bold;fill:#f1f1f1;font-family:Fira Sans;-inkscape-font-specification:Fira Sans Bold"
             id="path3010" />
        </g>
      </g>
    </g>
  </g>
</svg>
