<?xml version="1.0" encoding="UTF-8" standalone="no"?>
<svg
   xmlns:dc="http://purl.org/dc/elements/1.1/"
   xmlns:cc="http://creativecommons.org/ns#"
   xmlns:rdf="http://www.w3.org/1999/02/22-rdf-syntax-ns#"
   xmlns:svg="http://www.w3.org/2000/svg"
   xmlns="http://www.w3.org/2000/svg"
   xmlns:sodipodi="http://sodipodi.sourceforge.net/DTD/sodipodi-0.dtd"
   xmlns:inkscape="http://www.inkscape.org/namespaces/inkscape"
   version="1.1"
   id="aboutWordmark"
   x="0px"
   y="0px"
   width="130px"
   height="38px"
   viewBox="0 0 130 38"
   xml:space="preserve"
   inkscape:version="0.91 r13725"
   sodipodi:docname="about-wordmark.svg"><metadata
     id="metadata9"><rdf:RDF><cc:Work
         rdf:about=""><dc:format>image/svg+xml</dc:format><dc:type
           rdf:resource="http://purl.org/dc/dcmitype/StillImage" /></cc:Work></rdf:RDF></metadata><defs
     id="defs7" /><sodipodi:namedview
     pagecolor="#ffffff"
     bordercolor="#666666"
     borderopacity="1"
     objecttolerance="10"
     gridtolerance="10"
     guidetolerance="10"
     inkscape:pageopacity="0"
     inkscape:pageshadow="2"
     inkscape:window-width="1918"
     inkscape:window-height="1012"
     id="namedview5"
     showgrid="false"
     inkscape:zoom="3.4606064"
     inkscape:cx="30.670164"
     inkscape:cy="14.653469"
     inkscape:window-x="0"
     inkscape:window-y="0"
     inkscape:window-maximized="1"
     inkscape:current-layer="text4134" /><g
     style="font-style:normal;font-weight:normal;font-size:44.76259232px;line-height:125%;font-family:Sans;letter-spacing:0px;word-spacing:0px;fill:#f2f2f2;fill-opacity:1;stroke:none;stroke-width:1px;stroke-linecap:butt;stroke-linejoin:miter;stroke-opacity:1"
     id="text4134"><path
       d="m 8.4557943,36.219688 -6.5570204,0 0,-31.8234051 6.5570204,0 0,31.8234051 z"
       style="font-style:normal;font-variant:normal;font-weight:bold;font-stretch:normal;font-family:Sans;-inkscape-font-specification:'Sans Bold';fill:#f2f2f2;fill-opacity:1"
       id="path4139" /><path
       d="m 23.930363,31.564204 q 1.748539,0 2.841375,-0.961696 1.092837,-0.961697 1.13655,-2.557238 l 5.923175,0 q -0.02186,2.40424 -1.311404,4.41506 -1.289547,1.988963 -3.540791,3.103656 -2.229387,1.092837 -4.939622,1.092837 -5.070762,0 -7.999564,-3.21294 -2.928803,-3.234797 -2.928803,-8.917548 l 0,-0.415278 q 0,-5.464183 2.906946,-8.720837 2.906946,-3.256653 7.977708,-3.256653 4.436917,0 7.103439,2.535381 2.688378,2.513525 2.732091,6.710018 l -5.923175,0 q -0.04371,-1.835966 -1.13655,-2.972516 -1.092836,-1.158407 -2.885089,-1.158407 -2.20753,0 -3.34408,1.617398 -1.114694,1.595542 -1.114694,5.201903 l 0,0.655702 q 0,3.650075 1.114694,5.245616 1.114693,1.595542 3.387794,1.595542 z"
       style="font-style:normal;font-variant:normal;font-weight:bold;font-stretch:normal;font-family:Sans;-inkscape-font-specification:'Sans Bold';fill:#f2f2f2;fill-opacity:1"
       id="path4141" /><path
       d="m 48.322478,36.656823 q -5.201903,0 -8.480413,-3.191083 -3.256654,-3.191083 -3.256654,-8.50227 l 0,-0.611988 q 0,-3.562648 1.376975,-6.36031 1.376974,-2.819519 3.890498,-4.327634 2.535382,-1.529971 5.770178,-1.529971 4.852195,0 7.628001,3.059943 2.797662,3.059943 2.797662,8.677123 l 0,2.579095 -15.05929,0 q 0.305994,2.316814 1.835965,3.715645 1.551828,1.398831 3.912356,1.398831 3.650074,0 5.704607,-2.644665 l 3.103657,3.475221 q -1.420688,2.010819 -3.846785,3.14737 -2.426098,1.114693 -5.376757,1.114693 z m -0.721272,-19.40878 q -1.87968,0 -3.059943,1.26769 -1.158407,1.267691 -1.486258,3.628218 l 8.786407,0 0,-0.502705 Q 51.797699,19.543 50.704862,18.40645 49.612025,17.248043 47.601206,17.248043 Z"
       style="font-style:normal;font-variant:normal;font-weight:bold;font-stretch:normal;font-family:Sans;-inkscape-font-specification:'Sans Bold';fill:#f2f2f2;fill-opacity:1"
       id="path4143" /><path
       d="m 87.052612,25.619172 q -0.371565,5.136333 -3.803072,8.086992 -3.409651,2.950659 -9.004975,2.950659 -6.119885,0 -9.63882,-4.109066 -3.497077,-4.130923 -3.497077,-11.321788 l 0,-1.94525 q 0,-4.589914 1.617398,-8.086992 1.617399,-3.4970771 4.611771,-5.3548996 3.01623,-1.8796791 6.994155,-1.8796791 5.507897,0 8.873835,2.9506591 3.365937,2.9506592 3.890498,8.2837026 l -6.55702,0 q -0.240424,-3.0818 -1.726682,-4.458774 -1.464401,-1.3988311 -4.480631,-1.3988311 -3.27851,0 -4.917765,2.3605271 -1.617398,2.338671 -1.661112,7.278293 l 0,2.404241 q 0,5.158189 1.551828,7.540573 1.573685,2.382384 4.939622,2.382384 3.038086,0 4.524344,-1.376974 1.508115,-1.398831 1.726682,-4.305777 l 6.557021,0 z"
       style="font-style:normal;font-variant:normal;font-weight:bold;font-stretch:normal;font-family:Sans;-inkscape-font-specification:'Sans Bold';fill:#f2f2f2;fill-opacity:1"
       id="path4145" /><path
       d="m 104.64728,36.219688 q -0.43713,-0.852412 -0.63384,-2.120103 -2.29496,2.557238 -5.96689,2.557238 -3.475221,0 -5.770178,-2.010819 -2.2731,-2.01082 -2.2731,-5.070763 0,-3.759358 2.775805,-5.770178 2.797662,-2.010819 8.065133,-2.032676 l 2.90695,0 0,-1.355118 q 0,-1.639255 -0.85242,-2.622808 -0.83055,-0.983553 -2.64466,-0.983553 -1.595542,0 -2.513524,0.764986 -0.896126,0.764986 -0.896126,2.098246 l -6.316597,0 q 0,-2.054533 1.267691,-3.803071 1.26769,-1.748539 3.584504,-2.732092 2.316814,-1.00541 5.201902,-1.00541 4.37135,0 6.92859,2.20753 2.57909,2.185674 2.57909,6.163599 l 0,10.250809 q 0.0219,3.365937 0.93984,5.092619 l 0,0.371564 -6.38217,0 z m -5.223756,-4.393203 q 1.398836,0 2.579096,-0.611989 1.18026,-0.633845 1.74854,-1.682968 l 0,-4.065353 -2.36053,0 q -4.742911,0 -5.048905,3.27851 l -0.02186,0.371565 q 0,1.180263 0.830556,1.945249 0.830556,0.764986 2.2731,0.764986 z"
       style="font-style:normal;font-variant:normal;font-weight:bold;font-stretch:normal;font-family:Sans;-inkscape-font-specification:'Sans Bold';fill:#f2f2f2;fill-opacity:1"
       id="path4147" /><path
       d="m 122.54795,6.7568103 0,5.8138917 4.0435,0 0,4.633627 -4.0435,0 0,11.802637 q 0,1.311404 0.50271,1.879679 0.5027,0.568275 1.92339,0.568275 1.04912,0 1.85782,-0.152997 l 0,4.786625 q -1.85782,0.568275 -3.82493,0.568275 -6.64444,0 -6.77558,-6.710017 l 0,-12.742477 -3.45337,0 0,-4.633627 3.45337,0 0,-5.8138917 6.31659,0 z"
       style="font-style:normal;font-variant:normal;font-weight:bold;font-stretch:normal;font-family:Sans;-inkscape-font-specification:'Sans Bold';fill:#f2f2f2;fill-opacity:1"
       id="path4149" /></g></svg>