<svg xmlns="http://www.w3.org/2000/svg" width="138" height="38"><path fill="context-fill" d="M 0.167,0.846 H 4.59 V 37.13 H 0.167 Z M 30.837,10.956 v 4.18 q -1.701,-1.045 -3.426,-1.555 -1.701,-0.534 -3.45,-0.534 -3.937,0 -6.01,2.77 -2.162,2.746 -2.162,7.728 0,4.982 2.162,7.752 2.162,2.746 6.1,2.746 1.749,0 3.45,-0.51 1.725,-0.534 3.426,-1.579 v 4.131 q -1.676,0.874 -3.499,1.312 -1.798,0.437 -3.815,0.437 -5.541,0 -8.797,-3.864 -3.256,-3.864 -3.256,-10.425 0,-6.658 3.28,-10.474 3.305,-3.815 9.016,-3.815 1.871,0 3.645,0.437 1.774,0.413 3.426,1.263 z M 58.761,22.402 V 24.59 H 40.242 q 0.267,4.617 2.503,7.047 2.26,2.405 6.245,2.405 2.333,0 4.495,-0.631 2.187,-0.631 4.325,-1.895 v 4.228 q -2.162,1.02 -4.447,1.555 -2.26,0.534 -4.593,0.534 -5.881,0 -9.307,-3.791 -3.402,-3.791 -3.402,-10.255 0,-6.683 3.232,-10.595 3.256,-3.937 8.773,-3.937 4.933,0 7.801,3.548 2.892,3.523 2.892,9.599 z m -4.034,-1.312 q -0.048,-3.669 -1.847,-5.856 -1.798,-2.187 -4.763,-2.187 -3.378,0 -5.419,2.114 -2.017,2.114 -2.308,5.954 z M 90.038,3.641 V 8.817 Q 87.802,6.508 85.275,5.366 82.747,4.224 79.904,4.224 q -5.589,0 -8.578,3.815 -2.964,3.791 -2.964,10.984 0,7.169 2.964,10.984 2.989,3.791 8.578,3.791 2.843,0 5.37,-1.142 2.527,-1.142 4.763,-3.45 v 5.127 q -2.308,1.749 -4.909,2.624 -2.6,0.874 -5.468,0.874 -7.436,0 -11.689,-5.03 -4.252,-5.054 -4.252,-13.779 0,-8.748 4.252,-13.779 4.252,-5.054 11.689,-5.054 2.916,0 5.516,0.874 2.6,0.85 4.86,2.576 z M 107.852,23.447 q -4.884,0 -6.78,1.239 -1.871,1.239 -1.871,4.228 0,2.381 1.409,3.791 1.409,1.385 3.839,1.385 3.353,0 5.37,-2.624 2.017,-2.648 2.017,-7.023 v -0.996 z m 8.019,-1.847 v 15.529 h -4.034 v -4.131 q -1.36,2.478 -3.426,3.669 -2.041,1.166 -5.03,1.166 -3.766,0 -5.978,-2.333 -2.211,-2.357 -2.211,-6.294 0,-4.593 2.746,-6.926 2.77,-2.333 8.262,-2.333 h 5.638 v -0.437 q 0,-3.086 -1.822,-4.763 -1.822,-1.701 -5.127,-1.701 -2.09,0 -4.082,0.558 -1.992,0.558 -3.839,1.676 v -4.131 q 2.211,-0.947 4.277,-1.409 2.09,-0.486 4.058,-0.486 5.322,0 7.946,3.062 2.624,3.062 2.624,9.283 z M 128.12,2.183 V 9.911 h 8.287 v 3.475 h -8.287 v 14.776 q 0,3.329 0.801,4.277 0.826,0.947 3.329,0.947 h 4.155 v 3.742 h -4.155 q -4.641,0 -6.415,-1.919 -1.774,-1.944 -1.774,-7.047 V 13.386 h -2.94 V 9.911 h 2.94 V 2.183 Z"/></svg>
