<?xml version="1.0" encoding="UTF-8" standalone="no"?>
<!-- This Source Code Form is subject to the terms of the Mozilla Public
   - License, v. 2.0. If a copy of the MPL was not distributed with this
   - file, You can obtain one at http://mozilla.org/MPL/2.0/. -->

<svg
   xmlns:dc="http://purl.org/dc/elements/1.1/"
   xmlns:cc="http://creativecommons.org/ns#"
   xmlns:rdf="http://www.w3.org/1999/02/22-rdf-syntax-ns#"
   xmlns:svg="http://www.w3.org/2000/svg"
   xmlns="http://www.w3.org/2000/svg"
   xmlns:sodipodi="http://sodipodi.sourceforge.net/DTD/sodipodi-0.dtd"
   xmlns:inkscape="http://www.inkscape.org/namespaces/inkscape"
   width="32"
   height="32"
   viewBox="0 0 32 32"
   id="svg2"
   version="1.1"
   inkscape:version="0.91 r13725"
   sodipodi:docname="identity-icons-brand.svg">
  <metadata
     id="metadata10">
    <rdf:RDF>
      <cc:Work
         rdf:about="">
        <dc:format>image/svg+xml</dc:format>
        <dc:type
           rdf:resource="http://purl.org/dc/dcmitype/StillImage" />
      </cc:Work>
    </rdf:RDF>
  </metadata>
  <defs
     id="defs8" />
  <sodipodi:namedview
     pagecolor="#ffffff"
     bordercolor="#666666"
     borderopacity="1"
     objecttolerance="10"
     gridtolerance="10"
     guidetolerance="10"
     inkscape:pageopacity="0"
     inkscape:pageshadow="2"
     inkscape:window-width="1364"
     inkscape:window-height="700"
     id="namedview6"
     showgrid="false"
     inkscape:zoom="16.536133"
     inkscape:cx="8.4105593"
     inkscape:cy="16"
     inkscape:window-x="0"
     inkscape:window-y="0"
     inkscape:window-maximized="1"
     inkscape:current-layer="svg2" />
  <path
     inkscape:connector-curvature="0"
     id="path2998"
     d="M 10.951148,29.783395 C 6.0041912,28.052607 2.8478043,23.694361 2.8213489,18.557977 2.813379,17.013887 3.0442379,15.2354 3.3858943,14.208657 3.7037947,13.253336 4.2091896,11.377361 4.5089926,10.039846 5.3940592,6.0913781 7.7637452,3.2532194 11.198571,2.0278143 c 3.133484,-1.11790175 8.560002,-0.3045618 11.053342,1.6566951 0.844413,0.6642152 0.969857,0.681563 1.254245,0.1733913 0.278015,-0.4967863 0.499217,-0.4354921 1.840694,0.5100672 1.295743,0.9133227 1.815992,1.0679931 3.464506,1.0299871 1.066895,-0.024568 1.939807,0.080496 1.939807,0.2335455 0,0.1530484 -0.384522,0.7994342 -0.854492,1.4364882 -0.46997,0.6369894 -0.957593,1.8789082 -1.083609,2.7598102 -0.126018,0.8809021 -0.550076,1.9530651 -0.942357,2.3825691 -0.652213,0.714079 -0.678396,0.931861 -0.305997,2.545155 0.698616,3.026596 0.50768,5.627208 -0.675,9.193828 -1.202638,3.626833 -2.518018,5.413728 -4.441171,6.033122 -1.830266,0.58955 -9.629404,0.454463 -11.497391,-0.199078 z m 6.548285,-1.921005 -0.441809,-0.799837 -0.198668,1.042187 c -0.142363,0.746857 -0.04799,1.102593 0.332991,1.255342 0.70318,0.281839 0.862308,-0.493236 0.307486,-1.497692 z m 3.871891,1.483094 c 0,-0.321851 -0.958396,-1.414475 -1.240721,-1.414475 -0.08188,0 -0.148885,0.390861 -0.148885,0.868521 0,0.636925 0.18528,0.868522 0.694803,0.868522 0.382141,0 0.694803,-0.145188 0.694803,-0.322568 z m 2.176273,-0.579904 c 0.278309,-0.27832 -0.08594,-1.181966 -0.476434,-1.181966 -0.170629,0 -0.310233,0.312662 -0.310233,0.694855 0,0.677131 0.368477,0.905275 0.786667,0.487111 z m -8.292414,-0.690686 c 0.116283,-0.303018 0.08085,-0.784263 -0.07873,-1.069426 -0.238739,-0.426636 -0.38953,-0.366815 -0.850974,0.337425 -0.308453,0.470754 -0.464737,0.951999 -0.347302,1.069427 0.394834,0.394835 1.06385,0.218041 1.277011,-0.337426 z M 9.2409746,26.278355 C 5.5369651,22.574302 4.6050459,17.31508 7.2619841,15.110021 c 0.9877834,-0.819778 1.8985004,-0.06451 3.3976179,2.8167 3.250201,6.24732 5.878529,8.656411 9.479401,8.688799 1.982598,0.01759 3.23394,-0.535267 4.431084,-1.958475 0.986571,-1.172908 2.012261,-4.269688 2.012261,-6.075479 0,-2.785877 -0.34264,-3.867162 -1.346401,-4.24877 -2.41013,-0.916353 -3.281313,-1.521998 -3.728397,-2.592009 -0.68662,-1.643334 -1.173798,-1.7887826 -2.102708,-0.627931 -0.978288,1.222627 -1.087674,4.048841 -0.240834,6.222425 0.903835,2.319881 1.676476,5.336572 1.429947,5.583093 -0.452528,0.452571 -2.030625,-0.228795 -2.325341,-1.004001 -0.164409,-0.432436 -0.549706,-0.994355 -0.856217,-1.248694 -0.30651,-0.254405 -0.557292,-0.734999 -0.557292,-1.067992 0,-0.332929 -0.307022,-0.995725 -0.682271,-1.472734 -0.791469,-1.006215 -1.37447,-3.050967 -1.710899,-6.00067 -0.346807,-3.0407361 -0.780181,-3.6477491 -2.604252,-3.6477491 -1.670699,0 -3.4917526,1.101097 -5.2291758,3.1617471 -3.247523,3.851784 -3.1258517,10.058571 0.270974,13.823032 0.7590649,0.841219 3.6277548,2.817156 4.0900188,2.817156 0.138378,0 -0.64846,-0.900061 -1.7485254,-2.000114 z m 3.9387234,0.19719 c 0.723689,-1.033194 0.486012,-1.139218 -0.800386,-0.35691 -0.594077,0.361275 -0.976481,0.760544 -0.849785,0.887224 0.442597,0.442602 1.121532,0.224429 1.650171,-0.530314 z M 11.73093,24.871439 c 1.309741,-1.124816 0.31696,-1.537768 -1.092166,-0.454331 -0.472549,0.363295 -0.7246814,0.812413 -0.583948,1.0401 0.260362,0.421293 0.670285,0.278061 1.676114,-0.585769 z m -1.650157,-1.988515 c 0.573213,-0.469841 0.917193,-0.855032 0.764403,-0.85601 -0.547236,-0.0066 -2.3277091,1.065059 -2.3277091,1.396815 0,0.533052 0.438233,0.381411 1.5633061,-0.540805 z M 9.9070725,20.570277 c 0,-0.423509 -2.1877415,0.549016 -2.3534667,1.046227 -0.096736,0.290181 0.2594869,0.236353 1.1053682,-0.167018 0.6864535,-0.327326 1.2480985,-0.723008 1.2480985,-0.879209 z M 8.8648674,18.147631 c 0,-0.382194 -1.7101037,0.799968 -1.7260886,1.193239 -0.00601,0.14773 0.3799096,0.01238 0.8575867,-0.300542 0.4776759,-0.312988 0.8685019,-0.714666 0.8685019,-0.892697 z M 11.871624,6.7990523 c -0.316222,-0.3494161 -0.574945,-0.9139014 -0.574945,-1.254397 0,-0.5286661 0.104348,-0.4993023 0.714419,0.2010548 0.672066,0.7715027 0.692661,0.7751526 0.347401,0.061322 -0.599965,-1.2404384 -0.418509,-1.6353788 0.347403,-0.7561244 0.711943,0.817295 0.713091,0.8174048 0.331334,0.031279 -0.480131,-0.9886786 -0.140312,-1.6678564 0.548483,-1.0962098 0.269593,0.2237472 0.490172,0.5917932 0.490172,0.8178839 0,0.2260896 0.411768,0.9495144 0.91504,1.6076563 0.503272,0.6581026 0.804985,0.8839012 0.670474,0.5017068 C 15.526894,6.5310954 15.325755,5.7494248 15.21443,5.1762128 l -0.20241,-1.0422051 0.769049,0.6809889 c 0.655614,0.5805443 0.816381,0.6061658 1.089924,0.1737032 0.176482,-0.2790108 0.323266,-0.3335537 0.326193,-0.1212116 0.0031,0.2238337 0.370291,0.3163099 0.873822,0.2200544 0.558105,-0.106681 0.868506,-0.0082 0.868506,0.2757157 0,0.2950395 0.230741,0.2329252 0.694803,-0.1870455 0.394019,-0.3565832 0.694804,-0.4550876 0.694804,-0.2275426 0,0.2206874 0.390824,0.4012472 0.868503,0.4012472 1.408052,0 1.008916,-0.5000126 -1.266256,-1.5862831 C 16.182607,1.9738073 10.459269,2.4890814 8.5511691,4.7882074 8.0150589,5.4341764 8.3995171,6.3015845 8.9693642,5.731779 9.2357352,5.4654091 9.5280408,5.6310812 9.9886091,6.3094678 L 10.634374,7.2606845 10.444175,5.8710176 10.253977,4.4814083 10.810969,5.6973191 c 0.306343,0.6687776 0.736365,1.3307913 0.955602,1.4711572 0.670461,0.4293091 0.708103,0.2969569 0.105053,-0.3694217 z M 27.971952,6.7397513 C 28.3757,6.478831 28.270412,6.4018049 27.504451,6.3976351 c -0.543732,0 -1.449245,-0.2773948 -2.01225,-0.6099714 -0.896637,-0.529656 -1.064268,-0.5404292 -1.351037,-0.08686 -0.506788,0.8016103 -0.396848,1.1728546 0.200508,0.677079 0.444872,-0.3692253 0.639085,-0.3464118 1.116646,0.1311763 0.64377,0.6437672 1.721418,0.7426227 2.513634,0.2306844 z M 8.170064,6.2391479 C 8.170064,6.1548979 8.0137352,5.98933 7.8226635,5.871244 7.6315929,5.7531579 7.4752629,5.822108 7.4752629,6.0244403 c 0,0.202352 0.15633,0.3679166 0.3474006,0.3679166 0.1910717,0 0.3474005,-0.068945 0.3474005,-0.153209 z"
     style="fill:#1861a9;fill-opacity:1" />
</svg>
